# xmcd
#
# Track frame offsets: 
#        150
#        7225
#        21391
#        31238
#        48177
#        59933
#        66367
#        75908
#        84195
#        96536
#        105826
#        122500
#        133573
#
# Disc length: 1830 seconds
#
# Revision: 0
# Processed by: cddbd v1.4PL0 Copyright (c) Steve Scherf et al.
# Submitted via: ExactAudioCopy v0.95a3
#
DISCID=a407240d
DTITLE=Lester Flatt and Earl Scruggs  - The Beverly Hillbillies 
DYEAR=1900
DGENRE=Country
TTITLE0=The Ballad Of Jed Clampett
TTITLE1=Beverly Hills
TTITLE2=Vittles
TTITLE3=A Long Talk With That Boy
TTITLE4=Jethro's A Powerful Man
TTITLE5=Elly's Spring Song
TTITLE6=Back Home USA
TTITLE7=Critters
TTITLE8=Doctor Granny
TTITLE9=Lady Lessons
TTITLE10=Birds An' Bees
TTITLE11=Love Of Money
TTITLE12=The Ballad Of Jed Clampett
EXTD=
EXTT0=
EXTT1=
EXTT2=
EXTT3=
EXTT4=
EXTT5=
EXTT6=
EXTT7=
EXTT8=
EXTT9=
EXTT10=
EXTT11=
EXTT12=
PLAYORDER=
